{
  "accessors": [
    {
      "bufferView": 2,
      "componentType": 5126,
      "count": 42,
      "max": [
        11.4777193069458,
        10.176213264465332,
        1.290408968925476
      ],
      "min": [
        -9.895119667053223,
        -11.196626663208008,
        -0.11177200078964233
      ],
      "type": "VEC3"
    },
    {
      "bufferView": 2,
      "byteOffset": 504,
      "componentType": 5126,
      "count": 42,
      "max": [
        0.2289259284734726,
        0.27794787287712097,
        1.0
      ],
      "min": [
        -0.13572001457214355,
        -0.11724002659320831,
        0.960579514503479
      ],
      "type": "VEC3"
    },
    {
      "bufferView": 1,
      "componentType": 5126,
      "count": 42,
      "max": [
        -0.006699000019580126,
        1.0
      ],
      "min": [
        -1.0066989660263062,
        0.0
      ],
      "type": "VEC2"
    },
    {
      "bufferView": 0,
      "componentType": 5125,
      "count": 180,
      "type": "SCALAR"
    },
    {
      "bufferView": 2,
      "byteOffset": 1008,
      "componentType": 5126,
      "count": 9969,
      "max": [
        9.77529239654541,
        10.23573112487793,
        6.992831230163574
      ],
      "min": [
        -7.931469917297363,
        -10.453948974609375,
        -0.5571110248565674
      ],
      "type": "VEC3"
    },
    {
      "bufferView": 2,
      "byteOffset": 120636,
      "componentType": 5126,
      "count": 9969,
      "max": [
        0.997556209564209,
        0.9995347857475281,
        1.0
      ],
      "min": [
        -0.999891459941864,
        -0.9996742606163025,
        -0.9740430116653442
      ],
      "type": "VEC3"
    },
    {
      "bufferView": 3,
      "componentType": 5126,
      "count": 9969,
      "max": [
        1.0,
        0.9999546408653259,
        0.9241430759429932,
        1.0
      ],
      "min": [
        -0.999773383140564,
        -0.9999911189079285,
        -0.8874433636665344,
        1.0
      ],
      "type": "VEC4"
    },
    {
      "bufferView": 1,
      "byteOffset": 336,
      "componentType": 5126,
      "count": 9969,
      "max": [
        0.9365730285644531,
        1.000525951385498
      ],
      "min": [
        0.05763600021600723,
        0.005934999790042639
      ],
      "type": "VEC2"
    },
    {
      "bufferView": 0,
      "byteOffset": 720,
      "componentType": 5125,
      "count": 38010,
      "type": "SCALAR"
    },
    {
      "bufferView": 2,
      "byteOffset": 240264,
      "componentType": 5126,
      "count": 6434,
      "max": [
        9.236912727355957,
        7.667472839355469,
        6.7259979248046875
      ],
      "min": [
        -9.060090065002441,
        -9.281668663024902,
        -0.3802190124988556
      ],
      "type": "VEC3"
    },
    {
      "bufferView": 2,
      "byteOffset": 317472,
      "componentType": 5126,
      "count": 6434,
      "max": [
        0.9998579025268555,
        0.9990757703781128,
        0.9999527335166931
      ],
      "min": [
        -0.9949368834495544,
        -0.9972303509712219,
        -0.9998561143875122
      ],
      "type": "VEC3"
    },
    {
      "bufferView": 3,
      "byteOffset": 159504,
      "componentType": 5126,
      "count": 6434,
      "max": [
        0.999950110912323,
        0.9999964237213135,
        0.8903005123138428,
        1.0
      ],
      "min": [
        -0.9999870657920837,
        -0.9994566440582275,
        -0.8136842846870422,
        1.0
      ],
      "type": "VEC4"
    },
    {
      "bufferView": 1,
      "byteOffset": 80088,
      "componentType": 5126,
      "count": 6434,
      "max": [
        0.9365730285644531,
        1.000525951385498
      ],
      "min": [
        0.05763600021600723,
        0.012714999727904797
      ],
      "type": "VEC2"
    },
    {
      "bufferView": 0,
      "byteOffset": 152760,
      "componentType": 5125,
      "count": 25884,
      "type": "SCALAR"
    },
    {
      "bufferView": 2,
      "byteOffset": 394680,
      "componentType": 5126,
      "count": 4472,
      "max": [
        8.444212913513184,
        3.2020130157470703,
        7.289836883544922
      ],
      "min": [
        -5.376680850982666,
        -9.094018936157227,
        -0.13191699981689453
      ],
      "type": "VEC3"
    },
    {
      "bufferView": 2,
      "byteOffset": 448344,
      "componentType": 5126,
      "count": 4472,
      "max": [
        0.9998223781585693,
        0.9999688863754272,
        1.0
      ],
      "min": [
        -0.9999884963035583,
        -0.9998047351837158,
        -1.0
      ],
      "type": "VEC3"
    },
    {
      "bufferView": 3,
      "byteOffset": 262448,
      "componentType": 5126,
      "count": 4472,
      "max": [
        1.0,
        0.9999992251396179,
        0.999568521976471,
        1.0
      ],
      "min": [
        -0.9999802112579346,
        -0.9999977350234985,
        -0.9979948401451111,
        -1.0
      ],
      "type": "VEC4"
    },
    {
      "bufferView": 1,
      "byteOffset": 131560,
      "componentType": 5126,
      "count": 4472,
      "max": [
        0.9950010180473328,
        0.9968159794807434
      ],
      "min": [
        -0.0009950000094249845,
        0.004813000094145536
      ],
      "type": "VEC2"
    },
    {
      "bufferView": 0,
      "byteOffset": 256296,
      "componentType": 5125,
      "count": 17196,
      "type": "SCALAR"
    },
    {
      "bufferView": 2,
      "byteOffset": 502008,
      "componentType": 5126,
      "count": 4918,
      "max": [
        6.6361541748046875,
        6.338771820068359,
        17.98773193359375
      ],
      "min": [
        -1.9507989883422852,
        -2.025347948074341,
        0.6558939814567566
      ],
      "type": "VEC3"
    },
    {
      "bufferView": 2,
      "byteOffset": 561024,
      "componentType": 5126,
      "count": 4918,
      "max": [
        1.0,
        0.9998376369476318,
        0.9999231100082397
      ],
      "min": [
        -0.9999246597290039,
        -0.9999726414680481,
        -0.9998892545700073
      ],
      "type": "VEC3"
    },
    {
      "bufferView": 3,
      "byteOffset": 334000,
      "componentType": 5126,
      "count": 4918,
      "max": [
        0.9999752044677734,
        1.0,
        0.9999502301216125,
        1.0
      ],
      "min": [
        -0.9999511241912842,
        -1.0,
        -0.9937587976455688,
        1.0
      ],
      "type": "VEC4"
    },
    {
      "bufferView": 1,
      "byteOffset": 167336,
      "componentType": 5126,
      "count": 4918,
      "max": [
        0.9883149862289429,
        0.9768869876861572
      ],
      "min": [
        0.012678000144660473,
        0.006707000080496073
      ],
      "type": "VEC2"
    },
    {
      "bufferView": 0,
      "byteOffset": 325080,
      "componentType": 5125,
      "count": 19698,
      "type": "SCALAR"
    }
  ],
  "asset": {
    "extras": {
      "author": "hannahwool (https://sketchfab.com/hannahwool)",
      "license": "CC-BY-4.0 (http://creativecommons.org/licenses/by/4.0/)",
      "source": "https://sketchfab.com/3d-models/small-alien-plant-diorama-02d0b4c546844d679ec686611ab73460",
      "title": "Small alien plant diorama"
    },
    "generator": "Sketchfab-12.67.0",
    "version": "2.0"
  },
  "bufferViews": [
    {
      "buffer": 0,
      "byteLength": 403872,
      "name": "floatBufferViews",
      "target": 34963
    },
    {
      "buffer": 0,
      "byteLength": 206680,
      "byteOffset": 403872,
      "byteStride": 8,
      "name": "floatBufferViews",
      "target": 34962
    },
    {
      "buffer": 0,
      "byteLength": 620040,
      "byteOffset": 610552,
      "byteStride": 12,
      "name": "floatBufferViews",
      "target": 34962
    },
    {
      "buffer": 0,
      "byteLength": 412688,
      "byteOffset": 1230592,
      "byteStride": 16,
      "name": "floatBufferViews",
      "target": 34962
    }
  ],
  "buffers": [
    {
      "byteLength": 1643280,
      "uri": "scene.bin"
    }
  ],
  "images": [
    {
      "uri": "textures/blinn1SG_baseColor.png"
    },
    {
      "uri": "textures/blinn1SG_metallicRoughness.png"
    },
    {
      "uri": "textures/blinn1SG_emissive.jpeg"
    },
    {
      "uri": "textures/blinn1SG_normal.png"
    },
    {
      "uri": "textures/initialShadingGroup_baseColor.jpeg"
    },
    {
      "uri": "textures/initialShadingGroup_metallicRoughness.png"
    },
    {
      "uri": "textures/initialShadingGroup_emissive.jpeg"
    },
    {
      "uri": "textures/initialShadingGroup_normal.png"
    },
    {
      "uri": "textures/lambert3SG_baseColor.png"
    },
    {
      "uri": "textures/lambert3SG_emissive.jpeg"
    },
    {
      "uri": "textures/lambert4SG_baseColor.jpeg"
    },
    {
      "uri": "textures/lambert4SG_metallicRoughness.png"
    },
    {
      "uri": "textures/lambert4SG_emissive.jpeg"
    },
    {
      "uri": "textures/lambert4SG_normal.jpeg"
    }
  ],
  "materials": [
    {
      "alphaMode": "BLEND",
      "doubleSided": true,
      "emissiveFactor": [
        1.0,
        1.0,
        1.0
      ],
      "emissiveTexture": {
        "index": 2
      },
      "name": "blinn1SG",
      "normalTexture": {
        "index": 3
      },
      "occlusionTexture": {
        "index": 1
      },
      "pbrMetallicRoughness": {
        "baseColorTexture": {
          "index": 0
        },
        "metallicFactor": 0.0,
        "metallicRoughnessTexture": {
          "index": 1
        },
        "roughnessFactor": 0.3853254905507404
      }
    },
    {
      "doubleSided": true,
      "emissiveFactor": [
        0.562933293227741,
        0.562933293227741,
        0.562933293227741
      ],
      "emissiveTexture": {
        "index": 6
      },
      "name": "initialShadingGroup",
      "normalTexture": {
        "index": 7
      },
      "occlusionTexture": {
        "index": 5
      },
      "pbrMetallicRoughness": {
        "baseColorTexture": {
          "index": 4
        },
        "metallicFactor": 0.0,
        "metallicRoughnessTexture": {
          "index": 5
        },
        "roughnessFactor": 0.4
      }
    },
    {
      "alphaMode": "BLEND",
      "doubleSided": true,
      "emissiveFactor": [
        1.0,
        1.0,
        1.0
      ],
      "emissiveTexture": {
        "index": 9
      },
      "name": "lambert3SG",
      "pbrMetallicRoughness": {
        "baseColorTexture": {
          "index": 8
        },
        "metallicFactor": 0.0,
        "roughnessFactor": 0.8635182962447585
      }
    },
    {
      "doubleSided": true,
      "emissiveFactor": [
        0.9877885389761538,
        0.9877885389761538,
        0.9877885389761538
      ],
      "emissiveTexture": {
        "index": 12
      },
      "name": "lambert4SG",
      "normalTexture": {
        "index": 13
      },
      "occlusionTexture": {
        "index": 11
      },
      "pbrMetallicRoughness": {
        "baseColorTexture": {
          "index": 10
        },
        "metallicFactor": 0.0,
        "metallicRoughnessTexture": {
          "index": 11
        },
        "roughnessFactor": 0.47507921441763823
      }
    }
  ],
  "meshes": [
    {
      "name": "Object_0",
      "primitives": [
        {
          "attributes": {
            "NORMAL": 1,
            "POSITION": 0,
            "TEXCOORD_0": 2
          },
          "indices": 3,
          "material": 2,
          "mode": 4
        }
      ]
    },
    {
      "name": "Object_1",
      "primitives": [
        {
          "attributes": {
            "NORMAL": 5,
            "POSITION": 4,
            "TANGENT": 6,
            "TEXCOORD_0": 7
          },
          "indices": 8,
          "material": 0,
          "mode": 4
        }
      ]
    },
    {
      "name": "Object_2",
      "primitives": [
        {
          "attributes": {
            "NORMAL": 10,
            "POSITION": 9,
            "TANGENT": 11,
            "TEXCOORD_0": 12
          },
          "indices": 13,
          "material": 0,
          "mode": 4
        }
      ]
    },
    {
      "name": "Object_3",
      "primitives": [
        {
          "attributes": {
            "NORMAL": 15,
            "POSITION": 14,
            "TANGENT": 16,
            "TEXCOORD_0": 17
          },
          "indices": 18,
          "material": 1,
          "mode": 4
        }
      ]
    },
    {
      "name": "Object_4",
      "primitives": [
        {
          "attributes": {
            "NORMAL": 20,
            "POSITION": 19,
            "TANGENT": 21,
            "TEXCOORD_0": 22
          },
          "indices": 23,
          "material": 3,
          "mode": 4
        }
      ]
    }
  ],
  "nodes": [
    {
      "children": [
        1
      ],
      "matrix": [
        1.0,
        0.0,
        0.0,
        0.0,
        0.0,
        2.220446049250313e-16,
        -1.0,
        0.0,
        0.0,
        1.0,
        2.220446049250313e-16,
        0.0,
        0.0,
        0.0,
        0.0,
        1.0
      ],
      "name": "Sketchfab_model"
    },
    {
      "children": [
        2,
        3,
        4,
        5,
        6
      ],
      "name": "planntsfial.obj.cleaner.materialmerger.gles"
    },
    {
      "mesh": 0,
      "name": "Object_2"
    },
    {
      "mesh": 1,
      "name": "Object_3"
    },
    {
      "mesh": 2,
      "name": "Object_4"
    },
    {
      "mesh": 3,
      "name": "Object_5"
    },
    {
      "mesh": 4,
      "name": "Object_6"
    }
  ],
  "samplers": [
    {
      "magFilter": 9729,
      "minFilter": 9987,
      "wrapS": 10497,
      "wrapT": 10497
    }
  ],
  "scene": 0,
  "scenes": [
    {
      "name": "Sketchfab_Scene",
      "nodes": [
        0
      ]
    }
  ],
  "textures": [
    {
      "sampler": 0,
      "source": 0
    },
    {
      "sampler": 0,
      "source": 1
    },
    {
      "sampler": 0,
      "source": 2
    },
    {
      "sampler": 0,
      "source": 3
    },
    {
      "sampler": 0,
      "source": 4
    },
    {
      "sampler": 0,
      "source": 5
    },
    {
      "sampler": 0,
      "source": 6
    },
    {
      "sampler": 0,
      "source": 7
    },
    {
      "sampler": 0,
      "source": 8
    },
    {
      "sampler": 0,
      "source": 9
    },
    {
      "sampler": 0,
      "source": 10
    },
    {
      "sampler": 0,
      "source": 11
    },
    {
      "sampler": 0,
      "source": 12
    },
    {
      "sampler": 0,
      "source": 13
    }
  ]
}
