{
  "accessors": [
    {
      "bufferView": 2,
      "componentType": 5126,
      "count": 2451,
      "max": [
        86.80989837646484,
        180.52197265625,
        170.0758514404297
      ],
      "min": [
        -434.92132568359375,
        -170.64857482910156,
        -620.0947265625
      ],
      "type": "VEC3"
    },
    {
      "bufferView": 2,
      "byteOffset": 29412,
      "componentType": 5126,
      "count": 2451,
      "max": [
        0.9986878633499146,
        0.9986522197723389,
        0.9997177124023438
      ],
      "min": [
        -0.9993933439254761,
        -0.9986826181411743,
        -0.991624116897583
      ],
      "type": "VEC3"
    },
    {
      "bufferView": 3,
      "componentType": 5126,
      "count": 2451,
      "max": [
        0.9993547201156616,
        0.9973599314689636,
        0.9986103177070618,
        1.0
      ],
      "min": [
        -0.9989389777183533,
        -0.9964556097984314,
        -0.999897837638855,
        -1.0
      ],
      "type": "VEC4"
    },
    {
      "bufferView": 1,
      "componentType": 5126,
      "count": 2451,
      "max": [
        0.9910414814949036,
        0.9953905940055847
      ],
      "min": [
        0.004609367344528437,
        0.004609367344528437
      ],
      "type": "VEC2"
    },
    {
      "bufferView": 0,
      "componentType": 5125,
      "count": 10062,
      "type": "SCALAR"
    },
    {
      "bufferView": 2,
      "byteOffset": 58824,
      "componentType": 5126,
      "count": 2451,
      "max": [
        52.61894989013672,
        216.1702117919922,
        -197.1979217529297
      ],
      "min": [
        -543.8187866210938,
        -195.74842834472656,
        -634.6565551757813
      ],
      "type": "VEC3"
    },
    {
      "bufferView": 2,
      "byteOffset": 88236,
      "componentType": 5126,
      "count": 2451,
      "max": [
        0.9952075481414795,
        0.9989914894104004,
        0.9995025396347046
      ],
      "min": [
        -0.9991413354873657,
        -0.9991409778594971,
        -0.9998749494552612
      ],
      "type": "VEC3"
    },
    {
      "bufferView": 3,
      "byteOffset": 39216,
      "componentType": 5126,
      "count": 2451,
      "max": [
        0.9992496967315674,
        0.996881902217865,
        0.9975213408470154,
        1.0
      ],
      "min": [
        -0.9994317889213562,
        -0.9990220665931702,
        -0.9985219836235046,
        1.0
      ],
      "type": "VEC4"
    },
    {
      "bufferView": 1,
      "byteOffset": 19608,
      "componentType": 5126,
      "count": 2451,
      "max": [
        0.9970757961273193,
        0.9805929660797119
      ],
      "min": [
        0.0029241961892694235,
        0.0029241961892694235
      ],
      "type": "VEC2"
    },
    {
      "bufferView": 0,
      "byteOffset": 40248,
      "componentType": 5125,
      "count": 12756,
      "type": "SCALAR"
    }
  ],
  "asset": {
    "extras": {
      "author": "mrrobot (https://sketchfab.com/mrrobot)",
      "license": "CC-BY-4.0 (http://creativecommons.org/licenses/by/4.0/)",
      "source": "https://sketchfab.com/3d-models/mushroom-tree-a91dca72963242739dd3cc2e60637869",
      "title": "Mushroom tree"
    },
    "generator": "Sketchfab-12.64.0",
    "version": "2.0"
  },
  "bufferViews": [
    {
      "buffer": 0,
      "byteLength": 91272,
      "name": "floatBufferViews",
      "target": 34963
    },
    {
      "buffer": 0,
      "byteLength": 39216,
      "byteOffset": 91272,
      "byteStride": 8,
      "name": "floatBufferViews",
      "target": 34962
    },
    {
      "buffer": 0,
      "byteLength": 117648,
      "byteOffset": 130488,
      "byteStride": 12,
      "name": "floatBufferViews",
      "target": 34962
    },
    {
      "buffer": 0,
      "byteLength": 78432,
      "byteOffset": 248136,
      "byteStride": 16,
      "name": "floatBufferViews",
      "target": 34962
    }
  ],
  "buffers": [
    {
      "byteLength": 326568,
      "uri": "scene.bin"
    }
  ],
  "images": [
    {
      "uri": "textures/2.002_baseColor.png"
    },
    {
      "uri": "textures/2.002_metallicRoughness.png"
    },
    {
      "uri": "textures/2.002_normal.jpeg"
    },
    {
      "uri": "textures/2.003_baseColor.png"
    },
    {
      "uri": "textures/2.003_metallicRoughness.png"
    },
    {
      "uri": "textures/2.003_normal.jpeg"
    }
  ],
  "materials": [
    {
      "doubleSided": true,
      "name": "2.002",
      "normalTexture": {
        "index": 2
      },
      "occlusionTexture": {
        "index": 1
      },
      "pbrMetallicRoughness": {
        "baseColorTexture": {
          "index": 0
        },
        "metallicFactor": 0.0,
        "metallicRoughnessTexture": {
          "index": 1
        }
      }
    },
    {
      "doubleSided": true,
      "name": "2.003",
      "normalTexture": {
        "index": 5
      },
      "occlusionTexture": {
        "index": 4,
        "strength": 0.6907393292682927
      },
      "pbrMetallicRoughness": {
        "baseColorTexture": {
          "index": 3
        },
        "metallicFactor": 0.0,
        "metallicRoughnessTexture": {
          "index": 4
        }
      }
    }
  ],
  "meshes": [
    {
      "name": "ZBrush_defualt_group.000_2.002_0",
      "primitives": [
        {
          "attributes": {
            "NORMAL": 1,
            "POSITION": 0,
            "TANGENT": 2,
            "TEXCOORD_0": 3
          },
          "indices": 4,
          "material": 0,
          "mode": 4
        }
      ]
    },
    {
      "name": "ZBrush_defualt_group.000_2.003_0",
      "primitives": [
        {
          "attributes": {
            "NORMAL": 6,
            "POSITION": 5,
            "TANGENT": 7,
            "TEXCOORD_0": 8
          },
          "indices": 9,
          "material": 1,
          "mode": 4
        }
      ]
    }
  ],
  "nodes": [
    {
      "children": [
        1
      ],
      "matrix": [
        1.0,
        0.0,
        0.0,
        0.0,
        0.0,
        2.220446049250313e-16,
        -1.0,
        0.0,
        0.0,
        1.0,
        2.220446049250313e-16,
        0.0,
        0.0,
        0.0,
        0.0,
        1.0
      ],
      "name": "Sketchfab_model"
    },
    {
      "children": [
        2
      ],
      "matrix": [
        1.0,
        0.0,
        0.0,
        0.0,
        0.0,
        0.0,
        1.0,
        0.0,
        0.0,
        -1.0,
        0.0,
        0.0,
        0.0,
        0.0,
        0.0,
        1.0
      ],
      "name": "53b3d27ee043424ab012148507e477f0.fbx"
    },
    {
      "children": [
        3
      ],
      "name": "RootNode"
    },
    {
      "children": [
        4,
        5
      ],
      "matrix": [
        1.0,
        0.0,
        0.0,
        0.0,
        0.0,
        -1.6292067939183141e-07,
        0.9999999999999868,
        0.0,
        0.0,
        -0.9999999999999868,
        -1.6292067939183141e-07,
        0.0,
        0.0,
        0.0,
        0.0,
        1.0
      ],
      "name": "ZBrush_defualt_group.000"
    },
    {
      "mesh": 0,
      "name": "ZBrush_defualt_group.000_2.002_0"
    },
    {
      "mesh": 1,
      "name": "ZBrush_defualt_group.000_2.003_0"
    }
  ],
  "samplers": [
    {
      "magFilter": 9729,
      "minFilter": 9729,
      "wrapS": 10497,
      "wrapT": 10497
    },
    {
      "magFilter": 9729,
      "minFilter": 9987,
      "wrapS": 10497,
      "wrapT": 10497
    }
  ],
  "scene": 0,
  "scenes": [
    {
      "name": "Sketchfab_Scene",
      "nodes": [
        0
      ]
    }
  ],
  "textures": [
    {
      "sampler": 0,
      "source": 0
    },
    {
      "sampler": 1,
      "source": 1
    },
    {
      "sampler": 1,
      "source": 2
    },
    {
      "sampler": 1,
      "source": 3
    },
    {
      "sampler": 1,
      "source": 4
    },
    {
      "sampler": 1,
      "source": 5
    }
  ]
}
