{
  "accessors": [
    {
      "bufferView": 3,
      "componentType": 5126,
      "count": 838,
      "max": [
        369.0888366699219,
        88.56417083740234,
        127.23835754394531
      ],
      "min": [
        -348.261962890625,
        -289.53485107421875,
        -787.5820922851563
      ],
      "type": "VEC3"
    },
    {
      "bufferView": 3,
      "byteOffset": 10056,
      "componentType": 5126,
      "count": 838,
      "max": [
        0.9999999403953552,
        0.9999575614929199,
        0.9999951124191284
      ],
      "min": [
        -0.9969905614852905,
        -0.9996652007102966,
        -0.9999410510063171
      ],
      "type": "VEC3"
    },
    {
      "bufferView": 4,
      "componentType": 5126,
      "count": 838,
      "max": [
        0.9999105334281921,
        1.0,
        0.9998562335968018,
        1.0
      ],
      "min": [
        -0.9997382164001465,
        -0.9999143481254578,
        -0.9998639822006226,
        -1.0
      ],
      "type": "VEC4"
    },
    {
      "bufferView": 2,
      "componentType": 5126,
      "count": 838,
      "max": [
        0.9970703125,
        0.99853515625
      ],
      "min": [
        0.0007996559143066406,
        0.0003998279571533203
      ],
      "type": "VEC2"
    },
    {
      "bufferView": 1,
      "componentType": 5125,
      "count": 4098,
      "type": "SCALAR"
    },
    {
      "bufferView": 5,
      "componentType": 5126,
      "count": 18,
      "max": [
        1.0,
        0.35559865832328796,
        0.3445468544960022,
        0.0,
        0.18736617267131805,
        1.0,
        0.39368122816085815,
        0.0,
        0.35764533281326294,
        0.39357003569602966,
        1.0,
        0.0,
        45.649505615234375,
        60.06234359741211,
        52.038482666015625,
        1.0
      ],
      "min": [
        -0.3937007784843445,
        -0.35233116149902344,
        -0.3564271330833435,
        0.0,
        -0.1839352697134018,
        -0.3032366931438446,
        0.0,
        0.0,
        -0.35749784111976624,
        -0.3936808407306671,
        -0.13117192685604095,
        0.0,
        -44.60254669189453,
        -248.66571044921875,
        -76.00455474853516,
        1.0
      ],
      "type": "MAT4"
    },
    {
      "bufferView": 0,
      "componentType": 5123,
      "count": 838,
      "type": "VEC4"
    },
    {
      "bufferView": 4,
      "byteOffset": 13408,
      "componentType": 5126,
      "count": 838,
      "max": [
        1.0,
        0.4901960790157318,
        0.2980392277240753,
        0.1725490242242813
      ],
      "min": [
        0.29803919792175293,
        0.0,
        0.0,
        0.0
      ],
      "type": "VEC4"
    },
    {
      "bufferView": 6,
      "componentType": 5126,
      "count": 38,
      "max": [
        1.2333333492279053
      ],
      "min": [
        0.0
      ],
      "type": "SCALAR"
    },
    {
      "bufferView": 7,
      "componentType": 5126,
      "count": 38,
      "max": [
        0.22047081589698792,
        0.2799611985683441,
        0.7954663634300232,
        0.5227102637290955
      ],
      "min": [
        -0.16583989560604095,
        -0.2559140622615814,
        -0.7956354022026062,
        -0.5221367478370667
      ],
      "type": "VEC4"
    },
    {
      "bufferView": 6,
      "byteOffset": 152,
      "componentType": 5126,
      "count": 38,
      "max": [
        1.2333333492279053
      ],
      "min": [
        0.0
      ],
      "type": "SCALAR"
    },
    {
      "bufferView": 7,
      "byteOffset": 608,
      "componentType": 5126,
      "count": 38,
      "max": [
        0.11477062851190567,
        0.24401456117630005,
        0.05041489750146866,
        0.9855545163154602
      ],
      "min": [
        -0.14325420558452606,
        0.13355737924575806,
        0.002598155289888382,
        0.9578065872192383
      ],
      "type": "VEC4"
    },
    {
      "bufferView": 6,
      "byteOffset": 304,
      "componentType": 5126,
      "count": 38,
      "max": [
        1.2333333492279053
      ],
      "min": [
        0.0
      ],
      "type": "SCALAR"
    },
    {
      "bufferView": 7,
      "byteOffset": 1216,
      "componentType": 5126,
      "count": 38,
      "max": [
        0.3642914891242981,
        0.15537579357624054,
        0.057864777743816376,
        0.9974151253700256
      ],
      "min": [
        -0.3004506528377533,
        -0.20013855397701263,
        -0.05842868611216545,
        -0.9968700408935547
      ],
      "type": "VEC4"
    },
    {
      "bufferView": 6,
      "byteOffset": 456,
      "componentType": 5126,
      "count": 38,
      "max": [
        1.2333333492279053
      ],
      "min": [
        0.0
      ],
      "type": "SCALAR"
    },
    {
      "bufferView": 7,
      "byteOffset": 1824,
      "componentType": 5126,
      "count": 38,
      "max": [
        0.23724885284900665,
        0.2542606294155121,
        0.7953539490699768,
        0.5231378078460693
      ],
      "min": [
        -0.16863198578357697,
        -0.2897728681564331,
        -0.7951344847679138,
        -0.5226411819458008
      ],
      "type": "VEC4"
    },
    {
      "bufferView": 6,
      "byteOffset": 608,
      "componentType": 5126,
      "count": 38,
      "max": [
        1.2333333492279053
      ],
      "min": [
        0.0
      ],
      "type": "SCALAR"
    },
    {
      "bufferView": 7,
      "byteOffset": 2432,
      "componentType": 5126,
      "count": 38,
      "max": [
        0.19083140790462494,
        -0.09815151244401932,
        0.011362221091985703,
        0.9855070114135742
      ],
      "min": [
        -0.16780860722064972,
        -0.25358307361602783,
        -0.055349625647068024,
        0.9510374665260315
      ],
      "type": "VEC4"
    },
    {
      "bufferView": 6,
      "byteOffset": 760,
      "componentType": 5126,
      "count": 38,
      "max": [
        1.2333333492279053
      ],
      "min": [
        0.0
      ],
      "type": "SCALAR"
    },
    {
      "bufferView": 7,
      "byteOffset": 3040,
      "componentType": 5126,
      "count": 38,
      "max": [
        0.34190428256988525,
        0.18826857209205627,
        0.05842549353837967,
        0.997896671295166
      ],
      "min": [
        -0.30983078479766846,
        -0.1598164588212967,
        -0.05797129124403,
        -0.9981234073638916
      ],
      "type": "VEC4"
    },
    {
      "bufferView": 6,
      "byteOffset": 912,
      "componentType": 5126,
      "count": 38,
      "max": [
        1.2333333492279053
      ],
      "min": [
        0.0
      ],
      "type": "SCALAR"
    },
    {
      "bufferView": 7,
      "byteOffset": 3648,
      "componentType": 5126,
      "count": 38,
      "max": [
        0.0444394126534462,
        -8.616561331109551e-08,
        3.057700581621248e-08,
        -0.9966281056404114
      ],
      "min": [
        -0.0820513591170311,
        -8.890403080386022e-08,
        1.8451087768767138e-08,
        -0.9999983906745911
      ],
      "type": "VEC4"
    },
    {
      "bufferView": 6,
      "byteOffset": 1064,
      "componentType": 5126,
      "count": 38,
      "max": [
        1.2333333492279053
      ],
      "min": [
        0.0
      ],
      "type": "SCALAR"
    },
    {
      "bufferView": 7,
      "byteOffset": 4256,
      "componentType": 5126,
      "count": 38,
      "max": [
        0.07850022614002228,
        -7.993630646296879e-08,
        8.862483724669801e-08,
        -0.9969140887260437
      ],
      "min": [
        -0.01642477884888649,
        -8.847130317235496e-08,
        8.010420060600154e-08,
        -0.9999997615814209
      ],
      "type": "VEC4"
    },
    {
      "bufferView": 6,
      "byteOffset": 1216,
      "componentType": 5126,
      "count": 38,
      "max": [
        1.2333333492279053
      ],
      "min": [
        0.0
      ],
      "type": "SCALAR"
    },
    {
      "bufferView": 7,
      "byteOffset": 4864,
      "componentType": 5126,
      "count": 38,
      "max": [
        0.15252090990543365,
        1.0541890027582212e-08,
        8.691630881685342e-08,
        -0.9883002638816833
      ],
      "min": [
        -0.1345597207546234,
        -1.4317100394123372e-08,
        8.49353583021184e-08,
        -0.999994158744812
      ],
      "type": "VEC4"
    },
    {
      "bufferView": 6,
      "byteOffset": 1368,
      "componentType": 5126,
      "count": 38,
      "max": [
        1.2333333492279053
      ],
      "min": [
        0.0
      ],
      "type": "SCALAR"
    },
    {
      "bufferView": 7,
      "byteOffset": 5472,
      "componentType": 5126,
      "count": 38,
      "max": [
        0.13546712696552277,
        9.944491452529292e-09,
        8.722626176904669e-08,
        -0.990781843662262
      ],
      "min": [
        -0.08640764653682709,
        -9.371400544466724e-09,
        8.559251796214085e-08,
        -0.9999925494194031
      ],
      "type": "VEC4"
    }
  ],
  "animations": [
    {
      "channels": [
        {
          "sampler": 0,
          "target": {
            "node": 13,
            "path": "rotation"
          }
        },
        {
          "sampler": 1,
          "target": {
            "node": 14,
            "path": "rotation"
          }
        },
        {
          "sampler": 2,
          "target": {
            "node": 15,
            "path": "rotation"
          }
        },
        {
          "sampler": 3,
          "target": {
            "node": 16,
            "path": "rotation"
          }
        },
        {
          "sampler": 4,
          "target": {
            "node": 17,
            "path": "rotation"
          }
        },
        {
          "sampler": 5,
          "target": {
            "node": 18,
            "path": "rotation"
          }
        },
        {
          "sampler": 6,
          "target": {
            "node": 21,
            "path": "rotation"
          }
        },
        {
          "sampler": 7,
          "target": {
            "node": 22,
            "path": "rotation"
          }
        },
        {
          "sampler": 8,
          "target": {
            "node": 23,
            "path": "rotation"
          }
        },
        {
          "sampler": 9,
          "target": {
            "node": 24,
            "path": "rotation"
          }
        }
      ],
      "name": "GltfAnimation 0",
      "samplers": [
        {
          "input": 8,
          "interpolation": "LINEAR",
          "output": 9
        },
        {
          "input": 10,
          "interpolation": "LINEAR",
          "output": 11
        },
        {
          "input": 12,
          "interpolation": "LINEAR",
          "output": 13
        },
        {
          "input": 14,
          "interpolation": "LINEAR",
          "output": 15
        },
        {
          "input": 16,
          "interpolation": "LINEAR",
          "output": 17
        },
        {
          "input": 18,
          "interpolation": "LINEAR",
          "output": 19
        },
        {
          "input": 20,
          "interpolation": "LINEAR",
          "output": 21
        },
        {
          "input": 22,
          "interpolation": "LINEAR",
          "output": 23
        },
        {
          "input": 24,
          "interpolation": "LINEAR",
          "output": 25
        },
        {
          "input": 26,
          "interpolation": "LINEAR",
          "output": 27
        }
      ]
    }
  ],
  "asset": {
    "extras": {
      "author": "LostBoyz2078 (https://sketchfab.com/LostModels2025)",
      "license": "CC-BY-NC-4.0 (http://creativecommons.org/licenses/by-nc/4.0/)",
      "source": "https://sketchfab.com/3d-models/stingray-48e5264c0f0941fdb2f49e25d5513b5c",
      "title": "Stingray"
    },
    "generator": "Sketchfab-15.22.0",
    "version": "2.0"
  },
  "bufferViews": [
    {
      "buffer": 0,
      "byteLength": 6704,
      "byteStride": 8,
      "name": "shortBufferViews",
      "target": 34962
    },
    {
      "buffer": 0,
      "byteLength": 16392,
      "byteOffset": 6704,
      "name": "floatBufferViews",
      "target": 34963
    },
    {
      "buffer": 0,
      "byteLength": 6704,
      "byteOffset": 23096,
      "byteStride": 8,
      "name": "floatBufferViews",
      "target": 34962
    },
    {
      "buffer": 0,
      "byteLength": 20112,
      "byteOffset": 29800,
      "byteStride": 12,
      "name": "floatBufferViews",
      "target": 34962
    },
    {
      "buffer": 0,
      "byteLength": 26816,
      "byteOffset": 49912,
      "byteStride": 16,
      "name": "floatBufferViews",
      "target": 34962
    },
    {
      "buffer": 0,
      "byteLength": 1152,
      "byteOffset": 76728,
      "name": "floatBufferViews"
    },
    {
      "buffer": 0,
      "byteLength": 1520,
      "byteOffset": 77880,
      "name": "floatBufferViews"
    },
    {
      "buffer": 0,
      "byteLength": 6080,
      "byteOffset": 79400,
      "byteStride": 16,
      "name": "floatBufferViews"
    }
  ],
  "buffers": [
    {
      "byteLength": 85480,
      "uri": "scene.bin"
    }
  ],
  "images": [
    {
      "uri": "textures/SeaLifeMantaRayMIC_baseColor.jpeg"
    },
    {
      "uri": "textures/SeaLifeMantaRayMIC_normal.jpeg"
    }
  ],
  "materials": [
    {
      "name": "SeaLifeMantaRayMIC",
      "normalTexture": {
        "index": 1
      },
      "pbrMetallicRoughness": {
        "baseColorFactor": [
          0.8,
          0.8,
          0.8,
          1.0
        ],
        "baseColorTexture": {
          "index": 0
        },
        "metallicFactor": 0.0,
        "roughnessFactor": 0.5
      }
    }
  ],
  "meshes": [
    {
      "name": "Object_0",
      "primitives": [
        {
          "attributes": {
            "JOINTS_0": 6,
            "NORMAL": 1,
            "POSITION": 0,
            "TANGENT": 2,
            "TEXCOORD_0": 3,
            "TEXCOORD_1": 3,
            "WEIGHTS_0": 7
          },
          "indices": 4,
          "material": 0,
          "mode": 4
        }
      ]
    }
  ],
  "nodes": [
    {
      "children": [
        1
      ],
      "matrix": [
        1.0,
        0.0,
        0.0,
        0.0,
        0.0,
        2.220446049250313e-16,
        -1.0,
        0.0,
        0.0,
        1.0,
        2.220446049250313e-16,
        0.0,
        0.0,
        0.0,
        0.0,
        1.0
      ],
      "name": "Sketchfab_model"
    },
    {
      "children": [
        2
      ],
      "name": "root"
    },
    {
      "children": [
        3
      ],
      "matrix": [
        1.0,
        0.0,
        0.0,
        0.0,
        0.0,
        2.220446049250313e-16,
        1.0,
        0.0,
        0.0,
        -1.0,
        2.220446049250313e-16,
        0.0,
        0.0,
        0.0,
        0.0,
        1.0
      ],
      "name": "GLTF_SceneRootNode"
    },
    {
      "children": [
        4,
        7,
        5
      ],
      "name": "GLTF_created_0"
    },
    {
      "children": [
        8
      ],
      "name": "GLTF_created_0_rootJoint"
    },
    {
      "children": [
        6
      ],
      "name": "SeaLifeMantaRaySKM_18"
    },
    {
      "name": "SeaLifeMantaRaySKM_19"
    },
    {
      "mesh": 0,
      "name": "Object_7",
      "skin": 0
    },
    {
      "children": [
        9,
        19
      ],
      "name": "swim_1",
      "rotation": [
        0.0001922552182804793,
        -0.6979383230209351,
        -0.7161579132080078,
        -0.00019219896057620645
      ],
      "scale": [
        2.5399997234344482,
        2.5399999618530273,
        2.5399999618530273
      ],
      "translation": [
        0.19579197466373444,
        24.740192413330078,
        -151.97129821777344
      ]
    },
    {
      "children": [
        10,
        13,
        16
      ],
      "name": "Head_2",
      "rotation": [
        0.12937739491462708,
        -8.532482809187059e-08,
        -8.623771141635928e-10,
        -0.991595447063446
      ],
      "scale": [
        1.0,
        0.9999998807907104,
        0.9999999403953552
      ],
      "translation": [
        7.460391415747836e-09,
        36.28089141845703,
        -9.5367431640625e-07
      ]
    },
    {
      "children": [
        11,
        12
      ],
      "name": "jaw_3",
      "rotation": [
        0.13540595769882202,
        -0.0023677812423557043,
        -0.03761754184961319,
        -0.990073025226593
      ],
      "scale": [
        0.9999999403953552,
        1.0,
        0.9999998807907104
      ],
      "translation": [
        -4.4134834675801926e-13,
        15.80555248260498,
        9.5367431640625e-07
      ]
    },
    {
      "name": "Head_001_L_001_4",
      "rotation": [
        -0.09674292802810669,
        -0.034874819219112396,
        -0.3373278081417084,
        0.9357534646987915
      ],
      "scale": [
        1.0,
        0.9999999403953552,
        1.0000001192092896
      ],
      "translation": [
        -41.06243896484375,
        32.703651428222656,
        9.206299781799316
      ]
    },
    {
      "name": "Head_001_R_001_5",
      "rotation": [
        0.09674292802810669,
        -0.034874774515628815,
        -0.33733004331588745,
        -0.9357526302337646
      ],
      "scale": [
        0.9999999403953552,
        0.9999999403953552,
        0.9999999403953552
      ],
      "translation": [
        41.21644592285156,
        32.70384979248047,
        9.20629596710205
      ]
    },
    {
      "children": [
        14
      ],
      "name": "BodyL_6",
      "rotation": [
        -0.1331227868795395,
        0.2799611985683441,
        -0.7954133152961731,
        -0.5207856893539429
      ],
      "translation": [
        -4.4134834675801926e-13,
        15.80555248260498,
        9.5367431640625e-07
      ]
    },
    {
      "children": [
        15
      ],
      "name": "WingL01_7",
      "rotation": [
        -0.14325420558452606,
        0.24401456117630005,
        0.05041489750146866,
        0.9578065872192383
      ],
      "scale": [
        1.0,
        1.0000001192092896,
        0.9999999403953552
      ],
      "translation": [
        5.1902905084943995e-08,
        56.64488220214844,
        -4.426360192155698e-06
      ]
    },
    {
      "name": "WingL02_8",
      "rotation": [
        -0.21967999637126923,
        0.12338054180145264,
        0.054855842143297195,
        0.9661825895309448
      ],
      "scale": [
        1.0,
        0.9999999403953552,
        0.9999998807907104
      ],
      "translation": [
        4.6895529521862045e-06,
        80.297607421875,
        -1.2877887456852477e-05
      ]
    },
    {
      "children": [
        17
      ],
      "name": "BodyR_9",
      "rotation": [
        -0.11770237237215042,
        -0.2897728979587555,
        0.7946496605873108,
        -0.5202979445457458
      ],
      "scale": [
        0.9999998807907104,
        1.0,
        0.9999999403953552
      ],
      "translation": [
        -4.4134834675801926e-13,
        15.80555248260498,
        9.5367431640625e-07
      ]
    },
    {
      "children": [
        18
      ],
      "name": "WingR01_10",
      "rotation": [
        -0.16780860722064972,
        -0.25358307361602783,
        -0.055349625647068024,
        0.9510374665260315
      ],
      "scale": [
        1.0000001192092896,
        1.0,
        1.0000001192092896
      ],
      "translation": [
        -4.688319847900857e-07,
        56.7863655090332,
        -4.4864113988296594e-06
      ]
    },
    {
      "name": "WingR02_11",
      "rotation": [
        -0.20877793431282043,
        -0.11758603155612946,
        -0.055107757449150085,
        0.9693030714988708
      ],
      "scale": [
        1.0000001192092896,
        1.0000001192092896,
        1.000000238418579
      ],
      "translation": [
        -7.528261107836443e-07,
        80.2976303100586,
        6.988600034674164e-06
      ]
    },
    {
      "children": [
        20
      ],
      "name": "Body_12",
      "rotation": [
        1.2082153943993035e-07,
        0.04326656088232994,
        -0.9990634918212891,
        -0.00037948504905216396
      ],
      "scale": [
        1.0000001192092896,
        0.9999998807907104,
        0.9999997615814209
      ],
      "translation": [
        2.0816681711721685e-17,
        -3.814697265625e-06,
        -1.71661376953125e-05
      ]
    },
    {
      "children": [
        21
      ],
      "name": "Rear_13",
      "rotation": [
        0.02540268562734127,
        -1.5067936942614324e-07,
        -6.6976140189467515e-09,
        0.999677300453186
      ],
      "scale": [
        1.0000001192092896,
        1.0000001192092896,
        1.0000001192092896
      ],
      "translation": [
        3.4577527507906325e-09,
        41.54414749145508,
        -3.1441516057384433e-13
      ]
    },
    {
      "children": [
        22
      ],
      "name": "Tail01_14",
      "rotation": [
        0.044439416378736496,
        -8.61982272226669e-08,
        1.8451089545123978e-08,
        -0.9990121722221375
      ],
      "translation": [
        4.87724705067194e-09,
        44.20500183105469,
        -5.345360705177882e-07
      ]
    },
    {
      "children": [
        23
      ],
      "name": "Tail02_15",
      "rotation": [
        0.07850022614002228,
        -7.993630646296879e-08,
        8.010420060600154e-08,
        -0.9969140887260437
      ],
      "translation": [
        -1.2769995061390205e-09,
        35.2294921875,
        3.1656691135140136e-07
      ]
    },
    {
      "children": [
        24
      ],
      "name": "Tail03_16",
      "rotation": [
        -0.1345597207546234,
        -1.4273877191328666e-08,
        8.582470911733253e-08,
        -0.9909054636955261
      ],
      "translation": [
        -1.0683676165967881e-09,
        34.642486572265625,
        7.193258170445915e-06
      ]
    },
    {
      "name": "Tail04_17",
      "rotation": [
        -0.08640764653682709,
        -9.371400544466724e-09,
        8.703989351488417e-08,
        -0.996259868144989
      ],
      "scale": [
        1.0,
        0.9999999403953552,
        1.0
      ],
      "translation": [
        -1.95760807564227e-09,
        39.936676025390625,
        -7.082880983944051e-07
      ]
    }
  ],
  "samplers": [
    {
      "magFilter": 9729,
      "minFilter": 9729,
      "wrapS": 10497,
      "wrapT": 10497
    }
  ],
  "scene": 0,
  "scenes": [
    {
      "name": "Sketchfab_Scene",
      "nodes": [
        0
      ]
    }
  ],
  "skins": [
    {
      "inverseBindMatrices": 5,
      "joints": [
        4,
        8,
        9,
        10,
        11,
        12,
        13,
        14,
        15,
        16,
        17,
        18,
        19,
        20,
        21,
        22,
        23,
        24
      ],
      "skeleton": 4
    }
  ],
  "textures": [
    {
      "sampler": 0,
      "source": 0
    },
    {
      "sampler": 0,
      "source": 1
    }
  ]
}
